<svg xmlns="http://www.w3.org/2000/svg" viewBox="0 0 1616.59 1500"><defs><style>.cls-1{fill:#fff;}</style></defs><g id="Artwork"><path class="cls-1" d="M213.65,486.47c30.31,0,54,21.22,54,52.13s-23.64,52.13-54,52.13-53.94-21.21-53.94-52.13S183.35,486.47,213.65,486.47ZM251.84,951H175.47V650.34h76.37Z"/><path class="cls-1" d="M347,650.34v44.85h6.06c12.13-25.45,37.59-49.7,92.75-49.7,70.31,0,117,51.52,117,126.08V951H486.42V775.21c0-45.46-23-67.89-64.25-67.89-46.67,0-73.95,32.73-73.95,88.49V951H271.84V650.34Z"/><path class="cls-1" d="M703.13,641.85c67.28,0,111.52,33.34,126.07,81.83L760.1,744.9c-7.27-32.73-27.88-44.86-57-44.86s-44.86,11.52-44.86,29.71c0,20,17,28.48,48.49,34.54l15.76,3c67.89,13.33,118.81,30.3,118.81,93.34s-49.71,98.8-126.08,98.8c-78.8,0-131.53-35.15-141.84-98.19l70.31-18.19c7.88,43.65,36.37,58.19,71.53,58.19s52.12-15.15,52.12-34.55-17-28.49-54.55-35.76l-15.75-3C634,815.82,584.32,794,584.32,734.59S631.6,641.85,703.13,641.85Z"/><path class="cls-1" d="M846.37,650.34h75.16V691h6.06c18.18-26.06,47.28-49.1,99.41-49.1,71.52,0,135.77,60.62,135.77,158.81S1098.52,959.47,1027,959.47c-52.13,0-81.23-23-98.2-47.28h-6.06v208.53H846.37Zm240,150.32c0-59.4-35.16-93.34-82.43-93.34s-82.44,33.94-82.44,93.34S956.69,894,1004,894,1086.4,860.07,1086.4,800.66Z"/><path class="cls-1" d="M1214.79,379.28c30.3,0,53.94,21.22,53.94,52.13s-23.64,52.13-53.94,52.13-54-21.22-54-52.13S1184.48,379.28,1214.79,379.28Zm36.92,569.18h-76.78v-299h76.78Z"/><path class="cls-1" d="M1344.13,692.77h6.07c11.51-32.13,37-43.64,75.16-43.64h31.52v64.25H1412c-38.8,0-66.68,20.61-66.68,63V951H1269V650.34h75.15Z"/></g></svg>