<svg width="1200" height="630" viewBox="0 0 1200 630" fill="none" xmlns="http://www.w3.org/2000/svg">
<defs>
<linearGradient id="g1" x1="0" y1="0" x2="1" y2="1">
<stop stop-color="#6A1B9A"/>
<stop offset="1" stop-color="#4A148C"/>
</linearGradient>
<linearGradient id="g2" x1="0" y1="0" x2="1" y2="0">
<stop stop-color="#C6FF00" stop-opacity="0.8"/>
<stop offset="1" stop-color="#FF5252" stop-opacity="0.8"/>
</linearGradient>
</defs>
<rect width="1200" height="630" rx="32" fill="url(#g1)"/>
<circle cx="1040" cy="120" r="160" fill="url(#g2)" opacity="0.2"/>
<circle cx="180" cy="520" r="200" fill="#C6FF00" opacity="0.08"/>
<circle cx="980" cy="520" r="140" fill="#FF5252" opacity="0.08"/>
<g transform="translate(200 140)">
  <rect x="0" y="0" width="380" height="320" rx="24" fill="#FFFFFF" fill-opacity="0.08" stroke="#FFFFFF" stroke-opacity="0.2"/>
  <rect x="30" y="40" width="320" height="40" rx="10" fill="#FFFFFF" fill-opacity="0.15"/>
  <rect x="30" y="100" width="240" height="18" rx="9" fill="#FFFFFF" fill-opacity="0.25"/>
  <rect x="30" y="130" width="180" height="14" rx="7" fill="#FFFFFF" fill-opacity="0.25"/>
  <rect x="30" y="170" width="260" height="18" rx="9" fill="#FFFFFF" fill-opacity="0.25"/>
  <rect x="30" y="200" width="210" height="14" rx="7" fill="#FFFFFF" fill-opacity="0.25"/>
  <rect x="30" y="240" width="140" height="32" rx="10" fill="#FF5252" fill-opacity="0.9"/>
  <rect x="190" y="240" width="140" height="32" rx="10" fill="#C6FF00" fill-opacity="0.8"/>
</g>
<g transform="translate(640 160)">
  <rect x="0" y="0" width="360" height="260" rx="26" fill="#FFFFFF" fill-opacity="0.08" stroke="#FFFFFF" stroke-opacity="0.2"/>
  <rect x="30" y="36" width="300" height="36" rx="12" fill="#C6FF00" fill-opacity="0.9"/>
  <rect x="30" y="96" width="220" height="12" rx="6" fill="#FFFFFF" fill-opacity="0.35"/>
  <rect x="30" y="120" width="260" height="12" rx="6" fill="#FFFFFF" fill-opacity="0.35"/>
  <rect x="30" y="156" width="180" height="12" rx="6" fill="#FFFFFF" fill-opacity="0.35"/>
  <rect x="30" y="200" width="300" height="36" rx="12" fill="#FF5252" fill-opacity="0.9"/>
</g>
<text x="200" y="440" fill="#FFFFFF" font-family="Montserrat, 'Helvetica Neue', Arial, sans-serif" font-size="54" font-weight="800">InspirQuiz Blog</text>
<text x="200" y="490" fill="#FFFFFF" font-family="Montserrat, 'Helvetica Neue', Arial, sans-serif" font-size="26" font-weight="500" opacity="0.9">Actionable guides for smarter studying, active recall, and AI-generated quizzes.</text>
</svg>
